<svg width="40" height="40" viewBox="0 0 40 40" fill="none" xmlns="http://www.w3.org/2000/svg">
<g clip-path="url(#clip0_350_407)">
<path d="M42.476 28.9642H41.5011L40.6827 29.827L40.7038 30.1707L41.1878 37.7812L33.6614 34.5827L30.0397 33.0442C28.1436 33.4767 26.1328 33.7105 24.0496 33.7105C12.7028 33.7105 3.50245 26.8108 3.50245 18.2979C3.50245 9.7849 12.7052 2.88286 24.0542 2.88286C29.6259 2.88286 34.6785 4.54758 38.3774 7.24807H41.5455C37.3229 2.84545 30.6406 0 23.119 0C10.3507 0 0 8.19032 0 18.2955C0 28.4007 10.3507 36.5911 23.119 36.5911C25.5366 36.5911 27.8653 36.2965 30.0561 35.7517L42.476 40L41.2088 30.0725L42.476 28.9619V28.9642Z" fill="#37D2CF"/>
<path d="M16.5767 20.145C16.6 21.5361 17.7667 22.0973 19.0223 22.0973C19.9435 22.0973 21.1102 21.7372 21.1102 20.6149C21.1102 19.6493 19.7868 19.3126 17.4979 18.8193C15.6578 18.4148 13.8177 17.7648 13.8177 15.7213C13.8177 12.7589 16.3756 11.9944 18.868 11.9944C21.3604 11.9944 23.7382 12.8478 23.986 15.6979H20.9559C20.867 14.4634 19.9225 14.1267 18.7791 14.1267C18.0613 14.1267 17.0069 14.2623 17.0069 15.2046C17.0069 16.3502 18.8025 16.5069 20.6192 16.9324C22.4827 17.358 24.2994 18.0313 24.2994 20.187C24.2994 23.2382 21.6503 24.2273 19.0036 24.2273C16.3569 24.2273 13.6844 23.2172 13.5488 20.1426H16.579L16.5767 20.145Z" fill="#465B87"/>
</g>
<defs>
<clipPath id="clip0_350_407">
<rect width="40" height="40" fill="white"/>
</clipPath>
</defs>
</svg>
